<?xml version="1.0" encoding="UTF-8" standalone="no"?>
<svg width="13px" height="8px" viewBox="0 0 13 8" version="1.1" xmlns="http://www.w3.org/2000/svg" xmlns:xlink="http://www.w3.org/1999/xlink">
    <!-- Generator: Sketch 3.6.1 (26313) - http://www.bohemiancoding.com/sketch -->
    <title>icon-arrow-down</title>
    <desc>Created with Sketch.</desc>
    <defs></defs>
    <g id="Style-Guide-/-Assets" stroke="none" stroke-width="1" fill="none" fill-rule="evenodd">
        <g id="Elements" transform="translate(-61.000000, -1062.000000)" fill="#323B43">
            <g id="Icons" transform="translate(27.000000, 840.000000)">
                <g id="UI-Icons">
                    <g id="icon-arrow-down" transform="translate(40.000000, 225.000000) scale(-1, 1) rotate(-270.000000) translate(-40.000000, -225.000000) translate(32.000000, 217.000000)">
                        <path d="M5.70577424,3.81434559 C5.31598589,3.42533817 5.31514531,2.79705307 5.7100029,2.40496826 L5.7100029,2.40496826 C6.10212667,2.01559807 6.73539922,2.01782576 7.12493742,2.41042843 L12.0750748,7.3995081 C12.4643978,7.79189385 12.464613,8.4258744 12.0750748,8.81602474 L7.12493742,13.7739411 C6.73561443,14.1638759 6.10486049,14.1648267 5.7100029,13.7699585 L5.7100029,13.7699585 C5.31787913,13.3778242 5.31277287,12.7496688 5.71637919,12.3492951 L9.64041941,8.45668374 C9.8390145,8.25967927 9.84488452,7.94516326 9.64041941,7.74110779 L5.70577424,3.81434559 Z" id="icon-arrow-right"></path>
                    </g>
                </g>
            </g>
        </g>
    </g>
</svg>