<?xml version="1.0" encoding="UTF-8" standalone="no"?>
<svg width="16px" height="16px" viewBox="0 0 16 16" version="1.1" xmlns="http://www.w3.org/2000/svg" xmlns:xlink="http://www.w3.org/1999/xlink">
    <!-- Generator: Sketch 3.6.1 (26313) - http://www.bohemiancoding.com/sketch -->
    <title>icon-link</title>
    <desc>Created with Sketch.</desc>
    <defs></defs>
    <g id="Style-Guide-/-Assets" stroke="none" stroke-width="1" fill="none" fill-rule="evenodd">
        <g id="Elements" transform="translate(-155.000000, -1057.000000)" fill="#323B43">
            <g id="Icons" transform="translate(27.000000, 840.000000)">
                <g id="UI-Icons">
                    <g id="icon-link" transform="translate(128.000000, 217.000000)">
                        <path d="M9.75995661,8.74004339 C10.5492765,9.3622592 11.6926854,9.30731459 12.419425,8.58057499 L14.580575,6.41942501 C15.3667465,5.63325346 15.3645018,4.36450178 14.580575,3.58057499 L12.419425,1.41942501 C11.6332535,0.633253455 10.3645018,0.635498224 9.58057499,1.41942501 L7.41942501,3.58057499 C6.69075004,4.30924996 6.6393869,5.45249932 7.25997338,6.24002662 L9.35485625,4.14514375 L10.2902875,3.20971251 C10.6822509,2.81774911 11.3166267,2.81662673 11.7097125,3.20971251 L12.7902875,4.29028749 C13.1822509,4.68225089 13.1833733,5.31662673 12.7902875,5.70971251 L11.8548563,6.64514375 L9.75995661,8.74004339 Z M6.24004339,7.25995661 C5.45072355,6.6377408 4.30731459,6.69268541 3.58057499,7.41942501 L1.41942501,9.58057499 C0.633253455,10.3667465 0.635498224,11.6354982 1.41942501,12.419425 L3.58057499,14.580575 C4.36674654,15.3667465 5.63549822,15.3645018 6.41942501,14.580575 L8.58057499,12.419425 C9.30924996,11.69075 9.3606131,10.5475007 8.74002662,9.75997338 L6.64514375,11.8548563 L5.70971251,12.7902875 C5.31774911,13.1822509 4.68337327,13.1833733 4.29028749,12.7902875 L3.20971251,11.7097125 C2.81774911,11.3177491 2.81662673,10.6833733 3.20971251,10.2902875 L4.14514375,9.35485625 L6.24004339,7.25995661 Z M10.1426411,4.85735893 C10.340005,4.65999504 10.65625,4.65625 10.8497515,4.84975147 L11.1502485,5.15024853 C11.3434109,5.34341093 11.3395145,5.66048551 11.1426411,5.85735893 L5.85735893,11.1426411 C5.65999504,11.340005 5.34375,11.34375 5.15024853,11.1502485 L4.84975147,10.8497515 C4.65658907,10.6565891 4.66048551,10.3395145 4.85735893,10.1426411 L10.1426411,4.85735893 Z"></path>
                    </g>
                </g>
            </g>
        </g>
    </g>
</svg>