<?xml version="1.0" encoding="UTF-8" standalone="no"?>
<svg width="16px" height="16px" viewBox="0 0 16 16" version="1.1" xmlns="http://www.w3.org/2000/svg" xmlns:xlink="http://www.w3.org/1999/xlink">
    <!-- Generator: Sketch 3.6.1 (26313) - http://www.bohemiancoding.com/sketch -->
    <title>icon-click</title>
    <desc>Created with Sketch.</desc>
    <defs></defs>
    <g id="Style-Guide-/-Assets" stroke="none" stroke-width="1" fill="none" fill-rule="evenodd">
        <g id="Elements" transform="translate(-771.000000, -1055.000000)" fill="#323B43">
            <g id="Icons" transform="translate(27.000000, 840.000000)">
                <g id="UI-Icons">
                    <g id="icon-click" transform="translate(744.000000, 215.000000)">
                        <path d="M11.9951265,5.75593513 C11.8670799,2.5553881 9.23196141,0 6,0 C2.6862915,0 0,2.6862915 0,6 C0,9.04860692 2.27366981,11.5661698 5.21779631,11.9494755 L4.85026989,9.83230278 C3.20152328,9.33836596 2,7.80949838 2,6 C2,3.790861 3.790861,2 6,2 C7.74000477,2 9.22052002,3.11100668 9.77085735,4.66233163 L11.9951265,5.75593513 Z M6.17748666,5.97617662 C6.07946348,5.43704916 6.40439725,5.20219862 6.88743329,5.44371665 L15.1125667,9.55628335 C15.6026826,9.80134129 15.5703705,10.1022927 15.0248191,10.2321859 L10.9892238,11.193042 C10.8571041,11.224499 10.6925623,11.3492105 10.6246923,11.4664406 L8.50439239,15.1287768 C8.22582416,15.6099401 7.91912055,15.555163 7.82251334,15.0238234 L6.17748666,5.97617662 Z"></path>
                    </g>
                </g>
            </g>
        </g>
    </g>
</svg>