<?xml version="1.0" encoding="UTF-8" standalone="no"?>
<svg width="16px" height="14px" viewBox="0 0 16 14" version="1.1" xmlns="http://www.w3.org/2000/svg" xmlns:xlink="http://www.w3.org/1999/xlink">
    <!-- Generator: Sketch 3.6.1 (26313) - http://www.bohemiancoding.com/sketch -->
    <title>icon-image</title>
    <desc>Created with Sketch.</desc>
    <defs></defs>
    <g id="Style-Guide-/-Assets" stroke="none" stroke-width="1" fill="none" fill-rule="evenodd">
        <g id="Elements" transform="translate(-347.000000, -1058.000000)">
            <g id="Icons" transform="translate(27.000000, 840.000000)">
                <g id="UI-Icons">
                    <g id="icon-image" transform="translate(320.000000, 217.000000)">
                        <path d="M0,3.00585866 C0,1.89805351 0.894513756,1 1.99406028,1 L14.0059397,1 C15.1072288,1 16,1.89706013 16,3.00585866 L16,12.9941413 C16,14.1019465 15.1054862,15 14.0059397,15 L1.99406028,15 C0.892771196,15 0,14.1029399 0,12.9941413 L0,3.00585866 Z M2,3.50964952 C2,3.22817786 2.22900057,3 2.50034732,3 L13.4996527,3 C13.7759869,3 14,3.22765279 14,3.50964952 L14,12.4903505 C14,12.7718221 13.7709994,13 13.4996527,13 L2.50034732,13 C2.22401312,13 2,12.7723472 2,12.4903505 L2,3.50964952 Z M4.5,7 C5.32842712,7 6,6.32842712 6,5.5 C6,4.67157288 5.32842712,4 4.5,4 C3.67157288,4 3,4.67157288 3,5.5 C3,6.32842712 3.67157288,7 4.5,7 Z M4.5,6 C4.77614237,6 5,5.77614237 5,5.5 C5,5.22385763 4.77614237,5 4.5,5 C4.22385763,5 4,5.22385763 4,5.5 C4,5.77614237 4.22385763,6 4.5,6 Z" id="canvas" fill="#323B43"></path>
                        <path d="M4.5,10.5 L6.5,8.5 L8.5,10.5" id="mountain-1" stroke="#323B43" stroke-linecap="round" stroke-linejoin="round"></path>
                        <path d="M7.5,9.5 L9.5,7.5 L12.5,10.5" id="mountain-2" stroke="#323B43" stroke-linecap="round" stroke-linejoin="round"></path>
                    </g>
                </g>
            </g>
        </g>
    </g>
</svg>