<?xml version="1.0" encoding="UTF-8" standalone="no"?>
<svg width="16px" height="16px" viewBox="0 0 16 16" version="1.1" xmlns="http://www.w3.org/2000/svg" xmlns:xlink="http://www.w3.org/1999/xlink">
    <!-- Generator: Sketch 3.6.1 (26313) - http://www.bohemiancoding.com/sketch -->
    <title>icon-circle-facebook</title>
    <desc>Created with Sketch.</desc>
    <defs></defs>
    <g id="Style-Guide-/-Assets" stroke="none" stroke-width="1" fill="none" fill-rule="evenodd">
        <g id="Elements" transform="translate(-187.000000, -1057.000000)" fill="#323B43">
            <g id="Icons" transform="translate(27.000000, 840.000000)">
                <g id="UI-Icons">
                    <path d="M160,225 C160,220.581722 163.590712,217 168,217 L168,217 C172.418278,217 176,220.590712 176,225 L176,225 C176,229.418278 172.409288,233 168,233 L168,233 C163.581722,233 160,229.409288 160,225 L160,225 Z M167.182333,229 L167.182333,225.350846 L166,225.350846 L166,223.92868 L167.182333,223.92868 L167.182333,222.879886 C167.182333,221.662748 167.898036,221 168.943443,221 C169.44417,221 169.874529,221.038732 170,221.056032 L170,222.328002 L169.274915,222.328355 C168.706405,222.328355 168.596334,222.60894 168.596334,223.02069 L168.596334,223.92868 L169.952205,223.92868 L169.775642,225.350846 L168.596334,225.350846 L168.596334,229 L167.182333,229 Z" id="icon-circle-facebook"></path>
                </g>
            </g>
        </g>
    </g>
</svg>