<?xml version="1.0" encoding="UTF-8" standalone="no"?>
<svg width="16px" height="16px" viewBox="0 0 16 16" version="1.1" xmlns="http://www.w3.org/2000/svg" xmlns:xlink="http://www.w3.org/1999/xlink">
    <!-- Generator: Sketch 3.6.1 (26313) - http://www.bohemiancoding.com/sketch -->
    <title>icon-calendar</title>
    <desc>Created with Sketch.</desc>
    <defs></defs>
    <g id="Style-Guide-/-Assets" stroke="none" stroke-width="1" fill="none" fill-rule="evenodd">
        <g id="Elements" transform="translate(-579.000000, -1057.000000)" fill="#323B43">
            <g id="Icons" transform="translate(27.000000, 840.000000)">
                <g id="UI-Icons">
                    <g id="icon-calendar" transform="translate(552.000000, 217.000000)">
                        <path d="M0,1.99406028 C0,0.892771196 0.894513756,0 1.99406028,0 L14.0059397,0 C15.1072288,0 16,0.894513756 16,1.99406028 L16,14.0059397 C16,15.1072288 15.1054862,16 14.0059397,16 L1.99406028,16 C0.892771196,16 0,15.1054862 0,14.0059397 L0,1.99406028 Z M1,4 L15,4 L15,14.0044225 C15,14.5542648 14.5500512,15 13.9931545,15 L2.00684547,15 C1.45078007,15 1,14.555163 1,14.0044225 L1,4 Z" id="icon"></path>
                        <text id="1" font-family="OpenSans-Bold, Open Sans" font-size="9" font-weight="bold">
                            <tspan x="5.43139648" y="13">1</tspan>
                        </text>
                    </g>
                </g>
            </g>
        </g>
    </g>
</svg>