<?xml version="1.0" encoding="UTF-8" standalone="no"?>
<svg width="16px" height="16px" viewBox="0 0 16 16" version="1.1" xmlns="http://www.w3.org/2000/svg" xmlns:xlink="http://www.w3.org/1999/xlink">
    <!-- Generator: Sketch 3.6.1 (26313) - http://www.bohemiancoding.com/sketch -->
    <title>icon-circle-google-plus</title>
    <desc>Created with Sketch.</desc>
    <defs></defs>
    <g id="Style-Guide-/-Assets" stroke="none" stroke-width="1" fill="none" fill-rule="evenodd">
        <g id="Elements" transform="translate(-251.000000, -1057.000000)" fill="#323B43">
            <g id="Icons" transform="translate(27.000000, 840.000000)">
                <g id="UI-Icons">
                    <path d="M224,225 C224,220.581722 227.590712,217 232,217 L232,217 C236.418278,217 240,220.590712 240,225 L240,225 C240,229.418278 236.409288,233 232,233 L232,233 C227.581722,233 224,229.409288 224,225 L224,225 Z M230.545455,224.642857 L230.545455,225.5 L231.989091,225.5 C231.930909,225.867857 231.552727,226.578571 230.545455,226.578571 C229.676364,226.578571 228.967273,225.871429 228.967273,225 C228.967273,224.128571 229.676364,223.421429 230.545455,223.421429 C231.04,223.421429 231.370909,223.628571 231.56,223.807143 L232.250909,223.153571 C231.807273,222.746429 231.232727,222.5 230.545455,222.5 C229.138182,222.5 228,223.617857 228,225 C228,226.382143 229.138182,227.5 230.545455,227.5 C232.014545,227.5 232.989091,226.485714 232.989091,225.057143 C232.989091,224.892857 232.970909,224.767857 232.949091,224.642857 L230.545455,224.642857 L230.545455,224.642857 Z M236,224.642857 L235.272727,224.642857 L235.272727,223.928571 L234.545455,223.928571 L234.545455,224.642857 L233.818182,224.642857 L233.818182,225.357143 L234.545455,225.357143 L234.545455,226.071429 L235.272727,226.071429 L235.272727,225.357143 L236,225.357143" id="icon-circle-google-plus"></path>
                </g>
            </g>
        </g>
    </g>
</svg>