<?xml version="1.0" encoding="UTF-8" standalone="no"?>
<svg width="16px" height="14px" viewBox="0 0 16 14" version="1.1" xmlns="http://www.w3.org/2000/svg" xmlns:xlink="http://www.w3.org/1999/xlink">
    <!-- Generator: Sketch 3.6.1 (26313) - http://www.bohemiancoding.com/sketch -->
    <title>icon-export</title>
    <desc>Created with Sketch.</desc>
    <defs></defs>
    <g id="Style-Guide-/-Assets" stroke="none" stroke-width="1" fill="none" fill-rule="evenodd">
        <g id="Elements" transform="translate(-707.000000, -1057.000000)" fill="#323B43">
            <g id="Icons" transform="translate(27.000000, 840.000000)">
                <g id="UI-Icons">
                    <g id="icon-export" transform="translate(680.000000, 215.000000)">
                        <path d="M0,9.99810135 C0,8.89458045 0.887729645,8 2,8 L2.9906311,8 C3.54809015,8 4,8.44386482 4,9 L4,9 C4,9.55228475 3.55613518,10 3,10 L2.24523926,10 C2.10979736,10 2,10.1153984 2,10.2502179 L2,13.7497821 C2,13.8879736 2.10374069,14 2.25063705,14 L13.7493629,14 C13.887786,14 14,13.8846016 14,13.7497821 L14,10.2502179 C14,10.1120264 13.8924713,10 13.7547607,10 L13,10 C12.4477153,10 12,9.55613518 12,9 L12,9 C12,8.44771525 12.4433532,8 13.0093689,8 L14,8 C15.1045695,8 16,8.88670635 16,9.99810135 L16,14.0018986 C16,15.1054196 15.1054862,16 14.0059397,16 L1.99406028,16 C0.892771196,16 0,15.1132936 0,14.0018986 L0,9.99810135 Z M7,6.49100518 C7,6.21983051 6.78494263,6 6.50952148,6 L4.0093689,6 C3.45190985,6 3.34367025,5.7250638 3.78125,5.375 L8,2 L12.21875,5.375 C12.6502225,5.72017797 12.5566468,6 11.9906311,6 L9.49047852,6 C9.21959471,6 9,6.22788048 9,6.49100518 L9,11.009222 C9,11.5564136 8.55613518,12 8,12 L8,12 C7.44771525,12 7,11.5490248 7,11.009222 L7,6.49100518 Z"></path>
                    </g>
                </g>
            </g>
        </g>
    </g>
</svg>