<?xml version="1.0" encoding="UTF-8" standalone="no"?>
<svg width="16px" height="16px" viewBox="0 0 16 16" version="1.1" xmlns="http://www.w3.org/2000/svg" xmlns:xlink="http://www.w3.org/1999/xlink">
    <!-- Generator: Sketch 3.6.1 (26313) - http://www.bohemiancoding.com/sketch -->
    <title>icon-circle-pinterest</title>
    <desc>Created with Sketch.</desc>
    <defs></defs>
    <g id="Style-Guide-/-Assets" stroke="none" stroke-width="1" fill="none" fill-rule="evenodd">
        <g id="Elements" transform="translate(-283.000000, -1057.000000)" fill="#323B43">
            <g id="Icons" transform="translate(27.000000, 840.000000)">
                <g id="UI-Icons">
                    <path d="M264,233 C268.418278,233 272,229.418278 272,225 C272,220.581722 268.418278,217 264,217 C259.581722,217 256,220.581722 256,225 C256,229.418278 259.581722,233 264,233 Z M264.105276,221 C262.01144,221 260.899994,222.405076 260.899994,223.936249 C260.899994,224.647309 261.278488,225.5332 261.884527,225.815093 C261.97679,225.858061 262.025524,225.83923 262.046447,225.750539 C262.062675,225.682975 262.144834,225.353929 262.181372,225.200327 C262.193466,225.151287 262.187496,225.109187 262.147437,225.060708 C261.947958,224.818517 261.787263,224.370825 261.787263,223.954109 C261.787263,222.884406 262.597373,221.849302 263.977291,221.849302 C265.169723,221.849302 266.003563,222.660943 266.003563,223.822502 C266.003563,225.135059 265.341798,226.043965 264.479024,226.043965 C264.002653,226.043965 263.646052,225.650825 263.76036,225.166953 C263.897632,224.590665 264.162379,223.967684 264.162379,223.552397 C264.162379,223.17921 263.962339,222.868587 263.548379,222.868587 C263.061751,222.868587 262.670398,223.37231 262.670398,224.047189 C262.670398,224.476765 262.815835,224.767027 262.815835,224.767027 C262.815835,224.767027 262.33528,226.80034 262.247456,227.178783 C262.09758,227.821003 262.267001,228.861619 262.281953,228.952504 C262.289557,229.001289 262.343751,229.017772 262.37437,228.976744 C262.421624,228.913721 263.001178,228.044568 263.165088,227.416075 C263.223263,227.189295 263.466526,226.262835 263.466526,226.262835 C263.625537,226.564579 264.086854,226.819732 264.578483,226.819732 C266.041478,226.819732 267.096229,225.473647 267.096229,223.802293 C267.096229,222.19927 265.788418,221 264.105276,221" id="icon-circle-pinterest"></path>
                </g>
            </g>
        </g>
    </g>
</svg>