<?xml version="1.0" encoding="UTF-8" standalone="no"?>
<svg width="16px" height="12px" viewBox="0 0 16 12" version="1.1" xmlns="http://www.w3.org/2000/svg" xmlns:xlink="http://www.w3.org/1999/xlink">
    <!-- Generator: Sketch 3.6.1 (26313) - http://www.bohemiancoding.com/sketch -->
    <title>icon-retweet</title>
    <desc>Created with Sketch.</desc>
    <defs></defs>
    <g id="Style-Guide-/-Assets" stroke="none" stroke-width="1" fill="none" fill-rule="evenodd">
        <g id="Elements" transform="translate(-379.000000, -1059.000000)" fill="#323B43">
            <g id="Icons" transform="translate(27.000000, 840.000000)">
                <g id="UI-Icons">
                    <g id="icon-retweet" transform="translate(352.000000, 217.000000)">
                        <path d="M13,6 L12,6 L12,4.99703014 C12,4.45303631 11.5536144,4 11.0029699,4 L4.99851507,4 L2,4 L2,7.33333333 L0.599884495,9.20015401 C0.266229987,9.64502668 0.443586406,10 0.990777969,10 L2,10 L2,11.9914698 C2,13.0980496 2.8992496,14 4.0085302,14 L11.9914698,14 C13.0980496,14 14,13.1007504 14,11.9914698 L14,8.66666667 L15.4001155,6.79984599 C15.7314226,6.35810325 15.5490248,6 15.009222,6 L14,6 L14,4.0085302 C14,2.90195036 13.1007504,2 11.9914698,2 L4.0085302,2 C2.90195036,2 2,2.8992496 2,4.0085302 L2,7.33333333 L2.4001155,6.79984599 C2.73142256,6.35810325 3.26622999,6.35497332 3.5998845,6.79984599 L5.4001155,9.20015401 C5.73142256,9.64189675 5.54902482,10 5.00922203,10 L3,10 L4,10 L4,11.0029699 C4,11.5469637 4.4463856,12 4.99703014,12 L11.0014849,12 L14,12 L14,8.66666667 L13.5998845,9.20015401 C13.26623,9.64502668 12.7314226,9.64189675 12.4001155,9.20015401 L10.5998845,6.79984599 C10.26623,6.35497332 10.4435864,6 10.990778,6 L13,6 Z M14,6 L13,6 Z"></path>
                    </g>
                </g>
            </g>
        </g>
    </g>
</svg>