<?xml version="1.0" encoding="UTF-8" standalone="no"?>
<svg width="16px" height="16px" viewBox="0 0 16 16" version="1.1" xmlns="http://www.w3.org/2000/svg" xmlns:xlink="http://www.w3.org/1999/xlink">
    <!-- Generator: Sketch 3.6.1 (26313) - http://www.bohemiancoding.com/sketch -->
    <title>icon-circle-twitter</title>
    <desc>Created with Sketch.</desc>
    <defs></defs>
    <g id="Style-Guide-/-Assets" stroke="none" stroke-width="1" fill="none" fill-rule="evenodd">
        <g id="Elements" transform="translate(-315.000000, -1057.000000)" fill="#323B43">
            <g id="Icons" transform="translate(27.000000, 840.000000)">
                <g id="UI-Icons">
                    <path d="M288,225 C288,220.581722 291.590712,217 296,217 L296,217 C300.418278,217 304,220.590712 304,225 L304,225 C304,229.418278 300.409288,233 296,233 L296,233 C291.581722,233 288,229.409288 288,225 L288,225 Z M300,222.327635 C299.703704,222.467236 299.388889,222.566952 299.055556,222.606838 C299.398148,222.387464 299.657407,222.038462 299.777778,221.62963 C299.462963,221.82906 299.111111,221.978632 298.740741,222.058405 C298.435185,221.719373 298.009259,221.5 297.537037,221.5 C296.62963,221.5 295.898148,222.287749 295.898148,223.264957 C295.898148,223.404558 295.907407,223.54416 295.935185,223.673789 C294.574074,223.594017 293.37037,222.925926 292.555556,221.858974 C292.416667,222.118234 292.333333,222.387464 292.333333,222.716524 C292.333333,223.324786 292.62037,223.863248 293.064815,224.182336 C292.796296,224.172365 292.546296,224.092593 292.324074,223.962963 L292.324074,223.982906 C292.324074,224.840456 292.888889,225.558405 293.638889,225.717949 C293.5,225.757835 293.351852,225.777778 293.203704,225.777778 C293.101852,225.777778 293,225.767806 292.898148,225.747863 C293.101852,226.445869 293.712963,226.964387 294.425926,226.974359 C293.87037,227.452991 293.157407,227.811966 292.388889,227.811966 C292.259259,227.811966 292.12963,227.801994 292,227.782051 C292.722222,228.280627 293.592593,228.5 294.518519,228.5 C297.537037,228.5 299.185185,225.807692 299.185185,223.474359 L299.185185,223.245014 C299.5,222.995726 299.777778,222.68661 300,222.327635 L300,222.327635 Z" id="icon-circle-twitter"></path>
                </g>
            </g>
        </g>
    </g>
</svg>