<?xml version="1.0" encoding="UTF-8" standalone="no"?>
<svg width="12px" height="12px" viewBox="0 0 12 12" version="1.1" xmlns="http://www.w3.org/2000/svg" xmlns:xlink="http://www.w3.org/1999/xlink">
    <!-- Generator: Sketch 3.6.1 (26313) - http://www.bohemiancoding.com/sketch -->
    <title>icon-cross</title>
    <desc>Created with Sketch.</desc>
    <defs></defs>
    <g id="Style-Guide-/-Assets" stroke="none" stroke-width="1" fill="none" fill-rule="evenodd">
        <g id="Elements" transform="translate(-677.000000, -1059.000000)" fill="#323B43">
            <g id="Icons" transform="translate(27.000000, 840.000000)">
                <g id="UI-Icons">
                    <g id="icon-cross" transform="translate(648.000000, 217.000000)">
                        <path d="M9.41421356,8 L13.6562379,3.75797567 C14.0495595,3.36465403 14.0473785,2.73367004 13.6568542,2.34314575 C13.2636073,1.9498988 12.632889,1.95289741 12.2420243,2.34376211 L8,6.58578644 L3.75797567,2.34376211 C3.36465403,1.95044047 2.73367004,1.95262146 2.34314575,2.34314575 C1.9498988,2.73639271 1.95289741,3.36711097 2.34376211,3.75797567 L6.58578644,8 L2.34376211,12.2420243 C1.95044047,12.635346 1.95262146,13.26633 2.34314575,13.6568542 C2.73639271,14.0501012 3.36711097,14.0471026 3.75797567,13.6562379 L8,9.41421356 L12.2420243,13.6562379 C12.635346,14.0495595 13.26633,14.0473785 13.6568542,13.6568542 C14.0501012,13.2636073 14.0471026,12.632889 13.6562379,12.2420243 L9.41421356,8 Z"></path>
                    </g>
                </g>
            </g>
        </g>
    </g>
</svg>