<?xml version="1.0" encoding="UTF-8" standalone="no"?>
<svg width="16px" height="16px" viewBox="0 0 16 16" version="1.1" xmlns="http://www.w3.org/2000/svg" xmlns:xlink="http://www.w3.org/1999/xlink">
    <!-- Generator: Sketch 3.6.1 (26313) - http://www.bohemiancoding.com/sketch -->
    <title>icon-analytics</title>
    <desc>Created with Sketch.</desc>
    <defs></defs>
    <g id="Style-Guide-/-Assets" stroke="none" stroke-width="1" fill="none" fill-rule="evenodd">
        <g id="Elements" transform="translate(-547.000000, -1057.000000)">
            <g id="Icons" transform="translate(27.000000, 840.000000)">
                <g id="UI-Icons">
                    <g id="icon-analytics" transform="translate(520.000000, 217.000000)">
                        <g>
                            <g id="line" stroke="#323B43" stroke-width="2" stroke-linecap="square">
                                <path d="M2,14 L5,9 L11,7 L14,2" id="Line"></path>
                            </g>
                            <path d="M2,14.5 C2.27614237,14.5 2.5,14.2761424 2.5,14 C2.5,13.7238576 2.27614237,13.5 2,13.5 C1.72385763,13.5 1.5,13.7238576 1.5,14 C1.5,14.2761424 1.72385763,14.5 2,14.5 Z M2,16 C3.1045695,16 4,15.1045695 4,14 C4,12.8954305 3.1045695,12 2,12 C0.8954305,12 0,12.8954305 0,14 C0,15.1045695 0.8954305,16 2,16 Z" id="point-1" fill="#323B43"></path>
                            <path d="M5,9.5 C5.27614237,9.5 5.5,9.27614237 5.5,9 C5.5,8.72385763 5.27614237,8.5 5,8.5 C4.72385763,8.5 4.5,8.72385763 4.5,9 C4.5,9.27614237 4.72385763,9.5 5,9.5 Z M5,11 C6.1045695,11 7,10.1045695 7,9 C7,7.8954305 6.1045695,7 5,7 C3.8954305,7 3,7.8954305 3,9 C3,10.1045695 3.8954305,11 5,11 Z" id="point-2" fill="#323B43"></path>
                            <path d="M11,7.5 C11.2761424,7.5 11.5,7.27614237 11.5,7 C11.5,6.72385763 11.2761424,6.5 11,6.5 C10.7238576,6.5 10.5,6.72385763 10.5,7 C10.5,7.27614237 10.7238576,7.5 11,7.5 Z M11,9 C12.1045695,9 13,8.1045695 13,7 C13,5.8954305 12.1045695,5 11,5 C9.8954305,5 9,5.8954305 9,7 C9,8.1045695 9.8954305,9 11,9 Z" id="point-3" fill="#323B43"></path>
                            <path d="M14,2.5 C14.2761424,2.5 14.5,2.27614237 14.5,2 C14.5,1.72385763 14.2761424,1.5 14,1.5 C13.7238576,1.5 13.5,1.72385763 13.5,2 C13.5,2.27614237 13.7238576,2.5 14,2.5 Z M14,4 C15.1045695,4 16,3.1045695 16,2 C16,0.8954305 15.1045695,0 14,0 C12.8954305,0 12,0.8954305 12,2 C12,3.1045695 12.8954305,4 14,4 Z" id="point-4" fill="#323B43"></path>
                        </g>
                    </g>
                </g>
            </g>
        </g>
    </g>
</svg>