<?xml version="1.0" encoding="UTF-8" standalone="no"?>
<svg width="16px" height="16px" viewBox="0 0 16 16" version="1.1" xmlns="http://www.w3.org/2000/svg" xmlns:xlink="http://www.w3.org/1999/xlink">
    <!-- Generator: Sketch 3.6.1 (26313) - http://www.bohemiancoding.com/sketch -->
    <title>icon-settings</title>
    <desc>Created with Sketch.</desc>
    <defs></defs>
    <g id="Style-Guide-/-Assets" stroke="none" stroke-width="1" fill="none" fill-rule="evenodd">
        <g id="Elements" transform="translate(-611.000000, -1057.000000)" fill="#323B43">
            <g id="Icons" transform="translate(27.000000, 840.000000)">
                <g id="UI-Icons">
                    <g id="icon-settings" transform="translate(584.000000, 217.000000)">
                        <path d="M12.8907479,11.4765344 C13.4055629,10.7536018 13.7640946,9.91165661 13.9170416,9 L14.9991283,9 C15.5553691,9 16,8.55228475 16,8 C16,7.44386482 15.5518945,7 14.9991283,7 L13.9170416,7 C13.7640946,6.08834339 13.4055629,5.24639817 12.8907479,4.52346564 L13.6562379,3.75797567 C14.0495595,3.36465403 14.0473785,2.73367004 13.6568542,2.34314575 C13.2636073,1.9498988 12.632889,1.95289741 12.2420243,2.34376211 L11.4765344,3.10925208 C10.7536018,2.59443708 9.91165661,2.23590544 9,2.08295844 L9,1.00087166 C9,0.444630861 8.55228475,7.10542736e-15 8,7.10542736e-15 C7.44386482,7.10542736e-15 7,0.448105505 7,1.00087166 L7,2.08295844 C6.08834339,2.23590544 5.24639817,2.59443708 4.52346564,3.10925208 L3.75797567,2.34376211 C3.36711097,1.95289741 2.73639271,1.9498988 2.34314575,2.34314575 C1.95262146,2.73367004 1.95044047,3.36465403 2.34376211,3.75797567 L3.10925208,4.52346564 C2.59443708,5.24639817 2.23590544,6.08834339 2.08295844,7 L1.00087166,7 C0.444630861,7 -8.8817842e-15,7.44771525 -8.8817842e-15,8 C-8.8817842e-15,8.55613518 0.448105505,9 1.00087166,9 L2.08295844,9 C2.23590544,9.91165661 2.59443708,10.7536018 3.10925208,11.4765344 L2.34376211,12.2420243 C1.95044047,12.635346 1.95262146,13.26633 2.34314575,13.6568542 C2.73639271,14.0501012 3.36711097,14.0471026 3.75797567,13.6562379 L4.52346564,12.8907479 C5.24639817,13.4055629 6.08834339,13.7640946 7,13.9170416 L7,14.9991283 C7,15.5553691 7.44771525,16 8,16 C8.55613518,16 9,15.5518945 9,14.9991283 L9,13.9170416 C9.91165661,13.7640946 10.7536018,13.4055629 11.4765344,12.8907479 L12.2420243,13.6562379 C12.632889,14.0471026 13.2636073,14.0501012 13.6568542,13.6568542 C14.0473785,13.26633 14.0495595,12.635346 13.6562379,12.2420243 L12.8907479,11.4765344 Z M8,11 C9.65685425,11 11,9.65685425 11,8 C11,6.34314575 9.65685425,5 8,5 C6.34314575,5 5,6.34314575 5,8 C5,9.65685425 6.34314575,11 8,11 Z"></path>
                    </g>
                </g>
            </g>
        </g>
    </g>
</svg>