<?xml version="1.0" encoding="UTF-8" standalone="no"?>
<svg width="16px" height="16px" viewBox="0 0 16 16" version="1.1" xmlns="http://www.w3.org/2000/svg" xmlns:xlink="http://www.w3.org/1999/xlink">
    <!-- Generator: Sketch 3.6.1 (26313) - http://www.bohemiancoding.com/sketch -->
    <title>icon-circle-linkedin</title>
    <desc>Created with Sketch.</desc>
    <defs></defs>
    <g id="Style-Guide-/-Assets" stroke="none" stroke-width="1" fill="none" fill-rule="evenodd">
        <g id="Elements" transform="translate(-219.000000, -1057.000000)" fill="#323B43">
            <g id="Icons" transform="translate(27.000000, 840.000000)">
                <g id="UI-Icons">
                    <path d="M192,225 C192,220.581722 195.590712,217 200,217 C204.418278,217 208,220.590712 208,225 C208,229.418278 204.409288,233 200,233 C195.581722,233 192,229.409288 192,225 Z M196.96185,221 C197.492141,221 197.922459,221.431415 197.922459,221.962986 C197.922459,222.494868 197.492141,222.926283 196.96185,222.926283 C196.429386,222.926283 196,222.494868 196,221.962986 C196,221.431415 196.429386,221 196.96185,221 Z M196.131641,223.656299 L197.791128,223.656299 L197.791128,229 L196.131641,229 L196.131641,223.656299 Z M198.830908,223.656299 L200.419917,223.656299 L200.419917,224.386936 L200.442892,224.386936 C200.66395,223.966719 201.204797,223.523795 202.011099,223.523795 C203.689836,223.523795 204,224.630171 204,226.069362 L204,229 L202.342376,229 L202.342376,226.401244 C202.342376,225.781649 202.33182,224.984448 201.481119,224.984448 C200.61831,224.984448 200.486669,225.65972 200.486669,226.357076 L200.486669,229 L198.830908,229 L198.830908,223.656299 Z" id="icon-circle-linkedin"></path>
                </g>
            </g>
        </g>
    </g>
</svg>