<?xml version="1.0" encoding="UTF-8" standalone="no"?>
<svg width="10px" height="16px" viewBox="0 0 10 16" version="1.1" xmlns="http://www.w3.org/2000/svg" xmlns:xlink="http://www.w3.org/1999/xlink">
    <!-- Generator: Sketch 3.6.1 (26313) - http://www.bohemiancoding.com/sketch -->
    <title>icon-pricing</title>
    <desc>Created with Sketch.</desc>
    <defs></defs>
    <g id="Style-Guide-/-Assets" stroke="none" stroke-width="1" fill="none" fill-rule="evenodd">
        <g id="Elements" transform="translate(-870.000000, -1055.000000)" fill="#323B43">
            <g id="Icons" transform="translate(27.000000, 840.000000)">
                <g id="UI-Icons">
                    <g id="icon-pricing" transform="translate(840.000000, 215.000000)">
                        <path d="M12.2876966,10.4913329 C12.2876966,11.5050858 11.9330902,12.3195825 11.2238668,12.9348476 C10.5146434,13.5501127 9.52174551,13.9183098 8.24514339,14.0394501 L8.24514339,16 L6.97779833,16 L6.97779833,14.0777047 C5.47301129,14.0458257 4.15325883,13.7716702 3.01850139,13.2552301 L3.01850139,10.7304244 C3.55504431,11.004584 4.20104463,11.2468609 4.95652174,11.4572624 C5.71199884,11.6676639 6.38575097,11.7919902 6.97779833,11.8302451 L6.97779833,8.86551106 L6.35800185,8.61685595 C5.13690416,8.11954324 4.27197294,7.57920196 3.76318224,6.9958159 C3.25439154,6.41242984 3,5.69038087 3,4.82964734 C3,3.90515577 3.34998108,3.14485255 4.04995375,2.54871488 C4.74992641,1.95257721 5.72586485,1.59075577 6.97779833,1.46323969 L6.97779833,0 L8.24514339,0 L8.24514339,1.42498506 C9.65742303,1.4887431 10.934006,1.78202568 12.0749306,2.3048416 L11.2053654,4.5427376 C10.2432884,4.13468614 9.25655763,3.88603352 8.24514339,3.79677227 L8.24514339,6.6180514 C9.44773959,7.0962367 10.3034202,7.51065774 10.8122109,7.86132696 C11.3210016,8.21199617 11.6941092,8.59772653 11.9315449,9.01852959 C12.1689805,9.43933265 12.2876966,9.93026219 12.2876966,10.4913329 L12.2876966,10.4913329 Z M9.50323774,10.6347878 C9.50323774,10.367004 9.39839759,10.1406664 9.18871415,9.95576808 C8.97903071,9.77086977 8.66451027,9.57959852 8.24514339,9.3819486 L8.24514339,11.7632995 C9.08387715,11.616656 9.50323774,11.2404892 9.50323774,10.6347878 L9.50323774,10.6347878 Z M5.78445883,4.82964734 C5.78445883,5.11018271 5.87850661,5.34130214 6.066605,5.52301255 C6.25470338,5.70472296 6.55843145,5.89121243 6.97779833,6.08248655 L6.97779833,3.8350269 C6.18223469,3.95616717 5.78445883,4.287704 5.78445883,4.82964734 L5.78445883,4.82964734 Z" id="$"></path>
                    </g>
                </g>
            </g>
        </g>
    </g>
</svg>